<svg xmlns="http://www.w3.org/2000/svg" xmlns:xlink="http://www.w3.org/1999/xlink" width="60" height="60" viewBox="0 0 60 60">
  <defs>
    <clipPath id="clip-area03-icon-04">
      <rect width="60" height="60"/>
    </clipPath>
  </defs>
  <g id="area03-icon-04" clip-path="url(#clip-area03-icon-04)">
    <g id="back-end-developer" transform="translate(-341.034 -317.998)">
      <path id="路径_306" data-name="路径 306" d="M342.1,324.769a1.739,1.739,0,0,1,1.66-.769H399.4c1.291,0,1.63.338,1.63,1.645v21.4c0,.892-.446,1.414-1.153,1.414s-1.153-.538-1.153-1.414v-11.73H344.406v32.853c0,1.138.369,1.537,1.507,1.537H397.23c1.107,0,1.491-.4,1.491-1.491v-10.3a1.239,1.239,0,0,1,.738-1.307,1.136,1.136,0,0,1,1.568,1.122c.015,1.368,0,2.721,0,4.089v6.5A3.454,3.454,0,0,1,397.353,372H346.389c-2.506,0-3.321-.538-4.274-2.829V324.753Zm56.59,8.179v-6.611H344.452v6.611Z" transform="translate(0)" fill="#022e61"/>
      <path id="路径_307" data-name="路径 307" d="M546.382,491.1v-8.363c0-.876.43-1.291,1.322-1.307h4.72c1.015,0,1.445.415,1.445,1.43v8.194h2.644V477.368c0-1.23.338-1.568,1.568-1.568h4.551c.907,0,1.368.43,1.368,1.322v14.959c0,.892-.461,1.322-1.368,1.322H543.938c-.845,0-1.337-.446-1.337-1.168,0-.692.492-1.122,1.307-1.138Zm15.266-.046V478.106h-2.8v12.945Zm-12.929-7.287v7.3h2.8v-7.3Z" transform="translate(-169.676 -128.463)" fill="#022e61"/>
      <path id="路径_308" data-name="路径 308" d="M400.432,510.872h-7.994c-1.138,0-1.537-.384-1.537-1.507V504.83c0-1.03.415-1.43,1.43-1.43h16.158c1.045,0,1.445.415,1.46,1.476v4.535c0,1.061-.415,1.461-1.46,1.461h-8.056Zm7.21-5.135h-14.39v2.813h14.359c0-.138.031-.246.031-.354Z" transform="translate(-41.298 -151.82)" fill="#022e61"/>
      <path id="路径_309" data-name="路径 309" d="M520.342,433.579a12.7,12.7,0,0,1-.307,1.86,3.382,3.382,0,0,1-3.69,2.275,3.42,3.42,0,0,1-2.982-3.275c-.015-.523,0-1.03,0-1.553a3.446,3.446,0,0,1,3.382-3.49,3.5,3.5,0,0,1,3.521,3.428v.753Zm-4.674,0c0,.261-.015.538,0,.8a1.15,1.15,0,0,0,1.03,1.061,1.052,1.052,0,0,0,1.184-.861,9.1,9.1,0,0,0,0-2.045,1.078,1.078,0,0,0-1.2-.846,1.151,1.151,0,0,0-1.015,1.076c-.015.261,0,.538,0,.8Z" transform="translate(-144.927 -89.194)" fill="#022e61"/>
      <path id="路径_310" data-name="路径 310" d="M421.866,433.695a3.81,3.81,0,0,1,1.061-3.367,3.277,3.277,0,0,1,3.567-.707,3.226,3.226,0,0,1,2.2,2.829,11.992,11.992,0,0,1,0,2.229,3.43,3.43,0,0,1-6.826-.062A9.082,9.082,0,0,1,421.866,433.695Zm4.6-.154h-.046a8.038,8.038,0,0,0,0-.861,1.128,1.128,0,0,0-2.244.031,10.719,10.719,0,0,0,0,1.722,1.1,1.1,0,0,0,1.076,1,1.133,1.133,0,0,0,1.168-.969c.046-.307.031-.615.046-.907Z" transform="translate(-67.482 -89.171)" fill="#022e61"/>
      <path id="路径_311" data-name="路径 311" d="M398.987,577.506h-6.426c-.922,0-1.461-.446-1.461-1.168,0-.707.538-1.138,1.43-1.138h12.975c.861,0,1.414.477,1.368,1.2a1.172,1.172,0,0,1-1.291,1.107h-6.6Z" transform="translate(-41.467 -212.582)" fill="#022e61"/>
      <path id="路径_312" data-name="路径 312" d="M393.291,433.566v2.875a1.156,1.156,0,1,1-2.291.015v-5.75a1.162,1.162,0,1,1,2.306,0v2.875Z" transform="translate(-41.382 -89.196)" fill="#022e61"/>
      <path id="路径_313" data-name="路径 313" d="M482.6,433.6v-2.875a1.169,1.169,0,0,1,1.122-1.322,1.183,1.183,0,0,1,1.168,1.291c0,1.937.015,3.874,0,5.8a1.152,1.152,0,1,1-2.291-.031V433.6Z" transform="translate(-118.9 -89.196)" fill="#022e61"/>
      <path id="路径_314" data-name="路径 314" d="M710.2,503.067a1.123,1.123,0,0,1,1.091-1.168,1.146,1.146,0,1,1,.046,2.291A1.122,1.122,0,0,1,710.2,503.067Z" transform="translate(-311.51 -150.549)" fill="#022e61"/>
      <path id="路径_315" data-name="路径 315" d="M378.889,354.568a1.146,1.146,0,0,1-2.291-.077,1.137,1.137,0,0,1,1.214-1.107,1.116,1.116,0,0,1,1.061,1.2Z" transform="translate(-29.194 -24.864)" fill="#022e61"/>
      <path id="路径_316" data-name="路径 316" d="M408.891,354.451a1.113,1.113,0,0,1-1.138,1.122,1.145,1.145,0,0,1-1.153-1.122,1.168,1.168,0,0,1,1.184-1.153A1.113,1.113,0,0,1,408.891,354.451Z" transform="translate(-54.584 -24.794)" fill="#022e61"/>
      <path id="路径_317" data-name="路径 317" d="M438.873,354.492a1.1,1.1,0,0,1-1.168,1.076,1.132,1.132,0,0,1-1.107-1.153,1.15,1.15,0,0,1,1.214-1.122,1.134,1.134,0,0,1,1.076,1.184Z" transform="translate(-79.97 -24.788)" fill="#022e61"/>
    </g>
  </g>
</svg>
