<svg xmlns="http://www.w3.org/2000/svg" xmlns:xlink="http://www.w3.org/1999/xlink" width="60" height="60" viewBox="0 0 60 60">
  <defs>
    <clipPath id="clip-area03-icon-07">
      <rect width="60" height="60"/>
    </clipPath>
  </defs>
  <g id="area03-icon-07" clip-path="url(#clip-area03-icon-07)">
    <g id="block" transform="translate(-349.008 -294.811)">
      <path id="路径_354" data-name="路径 354" d="M384.267,354.03h-8.9a2.588,2.588,0,0,1-1.813-2.864c.046-.731,0-1.462,0-2.209H363.092c0,.731-.046,1.432,0,2.133a2.607,2.607,0,0,1-1.767,2.94h-8.9A2.688,2.688,0,0,1,350.6,352.2v-8.9a2.427,2.427,0,0,1,2.209-1.752c.518-.015,1.021,0,1.539,0h1.325V331.088c-.762,0-1.493-.03-2.209,0a2.573,2.573,0,0,1-2.864-1.813v-8.9a2.588,2.588,0,0,1,2.864-1.813c.731.046,1.462,0,2.209,0V308.1c-.746,0-1.478-.046-2.178,0a2.585,2.585,0,0,1-2.894-1.767v-8.9a2.578,2.578,0,0,1,2.849-1.843c2.3.061,4.6,0,6.9.015,1.9,0,2.742.838,2.742,2.742v2.331h10.466v-2.544a2.311,2.311,0,0,1,2.514-2.529h7.3a2.361,2.361,0,0,1,2.7,2.681v2.392H396.53v-2.59a2.283,2.283,0,0,1,2.5-2.468h7.465a2.3,2.3,0,0,1,2.514,2.514v7.236c0,1.9-.838,2.727-2.757,2.727h-2.316v10.466h2.544a2.307,2.307,0,0,1,2.514,2.514v7.236c0,1.889-.853,2.742-2.757,2.742H403.9v10.466h2.514a2.3,2.3,0,0,1,2.575,2.559c0,2.361-.046,4.707.015,7.069A2.588,2.588,0,0,1,407.164,354h-8.9a2.426,2.426,0,0,1-1.752-2.209c-.015-.518,0-1.021,0-1.539v-1.325H386.049c0,.762-.03,1.493,0,2.209A2.573,2.573,0,0,1,384.237,354ZM369.383,314.27V335.14h16.5c.884,0,1.386.442,1.371,1.173,0,.7-.5,1.1-1.371,1.112h-4.89v4.128h2.422a2.348,2.348,0,0,1,2.651,2.666V346.6H396.53v-2.651a2.247,2.247,0,0,1,2.392-2.392h2.635V331.088h-2.605a2.3,2.3,0,0,1-2.437-2.422V326.03h-3.961V330.8c0,.884-.442,1.417-1.143,1.417s-1.127-.518-1.143-1.4V314.27h-20.9Zm9.262,23.156h-8.958a2.34,2.34,0,0,1-2.635-2.635v-8.775h-3.976v2.407a2.348,2.348,0,0,1-2.651,2.666h-2.392v10.466c.884,0,1.752-.061,2.59.015a3.818,3.818,0,0,1,1.63.533,2.038,2.038,0,0,1,.838,1.9v2.59h10.466v-2.255c0-1.95.838-2.788,2.757-2.788h2.331Zm-20.6-29.295V318.6h2.361c1.813,0,2.681.868,2.681,2.7v2.376h3.961v-.655c0-2.757.046-5.515-.015-8.272a2.544,2.544,0,0,1,2.834-2.818c2.712.076,5.439.015,8.15.015h.609v-3.824h-.64c-.746,0-1.478.015-2.224,0a2.215,2.215,0,0,1-2.194-2,14.824,14.824,0,0,1-.03-1.645v-1.386H363.077v2.407c0,1.8-.853,2.651-2.666,2.651h-2.392Zm28.015-5.058v2.407a2.346,2.346,0,0,1-2.62,2.651h-2.453v3.824h8.973a2.334,2.334,0,0,1,2.59,2.62v9.095h3.976v-2.376c0-1.859.868-2.7,2.727-2.7h2.316V308.13c-.533,0-1.036-.03-1.523,0-2.757.183-3.717-.777-3.534-3.5.03-.5,0-1.021,0-1.554H386.065Zm-10.176-5.119V305.8h7.861v-7.845Zm-15.112,30.834v-7.876h-7.845v7.876Zm38.07-.015h7.845V320.9h-7.845Zm-15.1,15.1h-7.876v7.846h7.876ZM352.916,305.8h7.861v-7.815h-7.861Zm53.791-7.845h-7.845v7.861h7.845Zm-45.915,45.93h-7.876v7.83h7.876Zm45.915-.015h-7.845v7.846h7.845Z" transform="translate(0)" fill="#022e61"/>
      <path id="路径_355" data-name="路径 355" d="M489.534,467.589c.533.472,1.082.9,1.569,1.4a1.112,1.112,0,0,1,.061,1.706,1.132,1.132,0,0,1-1.706-.152c-.716-.731-1.432-1.462-2.133-2.209a1.149,1.149,0,0,1,0-1.843c.716-.762,1.447-1.508,2.178-2.255a1.141,1.141,0,0,1,1.676-.137,1.121,1.121,0,0,1-.03,1.706c-.5.5-1.082.945-1.63,1.417,0,.122.03.228.03.35Z" transform="translate(-115.504 -142.58)" fill="#022e61"/>
      <path id="路径_356" data-name="路径 356" d="M569.216,467.32c-.533-.457-1.082-.9-1.584-1.386a1.122,1.122,0,0,1-.076-1.752,1.145,1.145,0,0,1,1.706.168c.716.731,1.432,1.462,2.133,2.209a1.167,1.167,0,0,1,0,1.843c-.686.731-1.386,1.447-2.1,2.178a1.154,1.154,0,0,1-1.752.183,1.134,1.134,0,0,1,.107-1.752c.487-.487,1.021-.914,1.539-1.371,0-.107.03-.229.03-.335Z" transform="translate(-183.578 -142.646)" fill="#022e61"/>
      <path id="路径_357" data-name="路径 357" d="M525.421,471.124c-1.051,0-1.645-.914-1.188-1.661,1.036-1.721,2.117-3.412,3.214-5.088a1.064,1.064,0,0,1,1.508-.274,1.086,1.086,0,0,1,.366,1.493c-1.036,1.691-2.1,3.382-3.2,5.042A2.169,2.169,0,0,1,525.421,471.124Z" transform="translate(-147.05 -142.672)" fill="#022e61"/>
      <path id="路径_358" data-name="路径 358" d="M612.353,556.027a1.122,1.122,0,0,1-1.1,1.143,1.167,1.167,0,0,1-1.158-1.158,1.145,1.145,0,0,1,1.143-1.112A1.1,1.1,0,0,1,612.353,556.027Z" transform="translate(-219.966 -219.806)" fill="#022e61"/>
    </g>
  </g>
</svg>
