<svg xmlns="http://www.w3.org/2000/svg" xmlns:xlink="http://www.w3.org/1999/xlink" width="60" height="60" viewBox="0 0 60 60">
  <defs>
    <clipPath id="clip-area03-icon-01">
      <rect width="60" height="60"/>
    </clipPath>
  </defs>
  <g id="area03-icon-01" clip-path="url(#clip-area03-icon-01)">
    <g id="front-end" transform="translate(2.654 0)">
      <path id="路径_291" data-name="路径 291" d="M219.959,374.08a1.139,1.139,0,1,0,.806-.334A1.144,1.144,0,0,0,219.959,374.08Zm0,0" transform="translate(-193.414 -329.898)" fill="#022e61"/>
      <path id="路径_292" data-name="路径 292" d="M335.769,407.758a1.141,1.141,0,1,0,.805.334A1.148,1.148,0,0,0,335.769,407.758Zm0,0" transform="translate(-294.923 -359.919)" fill="#022e61"/>
      <path id="路径_293" data-name="路径 293" d="M48.331,8.863H47.276V1.172A1.172,1.172,0,0,0,46.1,0H8.589A1.173,1.173,0,0,0,7.417,1.172V8.863H6.362A5.868,5.868,0,0,0,.5,14.725V44.268a5.868,5.868,0,0,0,5.862,5.861H21.489v2.84a5.867,5.867,0,0,0-5.747,5.859A1.173,1.173,0,0,0,16.914,60H37.787a1.173,1.173,0,0,0,1.172-1.172,5.867,5.867,0,0,0-5.747-5.859v-2.84h3.279a1.172,1.172,0,1,0,0-2.345H6.362a3.521,3.521,0,0,1-3.517-3.517v-2.11h49v2.11a3.521,3.521,0,0,1-3.517,3.517h-2.7a1.172,1.172,0,0,0,0,2.345h2.7a5.868,5.868,0,0,0,5.862-5.861V14.725a5.868,5.868,0,0,0-5.862-5.862ZM36.414,57.655H18.287A3.524,3.524,0,0,1,21.6,55.311H33.1a3.523,3.523,0,0,1,3.316,2.345Zm-5.546-7.527v2.814H23.833V50.129ZM44.931,2.345V7.6H9.761V2.345ZM9.761,39.813V24.478a1.172,1.172,0,1,0-2.345,0V39.813H2.845V14.725a3.521,3.521,0,0,1,3.517-3.517H7.417v4.126a1.172,1.172,0,1,0,2.345,0V9.941H44.931V39.813Zm37.514,0v-28.6h1.055a3.521,3.521,0,0,1,3.517,3.517V39.813Zm0,0" transform="translate(0 0)" fill="#022e61"/>
      <path id="路径_294" data-name="路径 294" d="M229.726,34.693H241.5a1.14,1.14,0,0,0,0-2.279H229.726a1.14,1.14,0,1,0,0,2.279Zm0,0" transform="translate(-201.082 -28.722)" fill="#022e61"/>
      <path id="路径_295" data-name="路径 295" d="M132.417,34.693a1.141,1.141,0,1,0-.805-.334A1.147,1.147,0,0,0,132.417,34.693Zm0,0" transform="translate(-115.432 -28.722)" fill="#022e61"/>
      <path id="路径_296" data-name="路径 296" d="M95.8,34.693a1.14,1.14,0,1,0-.806-.334A1.147,1.147,0,0,0,95.8,34.693Zm0,0" transform="translate(-83.108 -28.722)" fill="#022e61"/>
      <path id="路径_297" data-name="路径 297" d="M169.034,34.693a1.14,1.14,0,1,0-.806-.334A1.144,1.144,0,0,0,169.034,34.693Zm0,0" transform="translate(-147.753 -28.722)" fill="#022e61"/>
      <path id="路径_298" data-name="路径 298" d="M60.663,159.863a1.14,1.14,0,1,0,.805.334A1.148,1.148,0,0,0,60.663,159.863Zm0,0" transform="translate(-52.3 -141.108)" fill="#022e61"/>
      <path id="路径_299" data-name="路径 299" d="M121.263,160.654a1.14,1.14,0,0,0-1.612,0l-5.02,5.02a1.139,1.139,0,0,0,0,1.612l5.02,5.02a1.14,1.14,0,1,0,1.612-1.612l-4.215-4.214,4.215-4.214A1.14,1.14,0,0,0,121.263,160.654Zm0,0" transform="translate(-100.401 -141.392)" fill="#022e61"/>
      <path id="路径_300" data-name="路径 300" d="M282.742,160.654a1.14,1.14,0,1,0-1.612,1.612l4.214,4.215-4.214,4.214a1.14,1.14,0,0,0,1.612,1.612l5.02-5.02a1.14,1.14,0,0,0,0-1.612Zm0,0" transform="translate(-247.3 -141.392)" fill="#022e61"/>
      <path id="路径_301" data-name="路径 301" d="M206.243,161.463a1.139,1.139,0,0,0-1.5.578l-4.408,9.921a1.14,1.14,0,1,0,2.083.925l4.408-9.921A1.14,1.14,0,0,0,206.243,161.463Zm0,0" transform="translate(-176.23 -142.315)" fill="#022e61"/>
    </g>
  </g>
</svg>
