<svg xmlns="http://www.w3.org/2000/svg" xmlns:xlink="http://www.w3.org/1999/xlink" width="60" height="60" viewBox="0 0 60 60">
  <defs>
    <clipPath id="clip-area03-icon-05">
      <rect width="60" height="60"/>
    </clipPath>
  </defs>
  <g id="area03-icon-05" clip-path="url(#clip-area03-icon-05)">
    <g id="infratructure" transform="translate(-394.567 -333.405)">
      <path id="路径_337" data-name="路径 337" d="M396.2,373.779a2.149,2.149,0,0,1,2.27-1.249c.533.031.747-.183.9-.686a21.716,21.716,0,0,1,1.036-2.468.6.6,0,0,0-.076-.747c-1.448-1.691-1.417-2.133.152-3.7.609-.609,1.234-1.188,1.813-1.813a1.931,1.931,0,0,1,2.088-.777c.29-1.493.518-2.956.853-4.388a18.217,18.217,0,0,1,2.164-5.181,1.127,1.127,0,0,1,2.027-.046,1.244,1.244,0,0,1-.122,1.3,17.913,17.913,0,0,0-2.179,5.836c-.2,1.067-.29,2.133-.442,3.307.838-.32,1.554-.579,2.255-.884.091-.046.152-.244.168-.366a16.917,16.917,0,0,1,13.333-14.872,23.941,23.941,0,0,1,2.758-.351.593.593,0,0,0,.609-.442c.213-.61.488-1.189.792-1.9-1.006.061-1.92.061-2.834.168a19.058,19.058,0,0,0-7.405,2.438,1.158,1.158,0,1,1-1.143-1.981,21.486,21.486,0,0,1,9.691-2.849c.183,0,.381-.03.457-.152.366-.472.686-.96,1.1-1.4.655-.716,1.356-1.387,2.042-2.057a1.648,1.648,0,0,1,2.56-.091,1.172,1.172,0,0,0,1.691.213,8.05,8.05,0,0,1,1.8-.716.574.574,0,0,0,.488-.64,2.494,2.494,0,0,1,.03-.335c.091-1.4.655-1.935,2.042-1.935h3.246a1.633,1.633,0,0,1,1.8,1.707c0,.777.213,1.2,1.021,1.387a8.351,8.351,0,0,1,1.828.777c.289.152.518.183.747-.091a5.041,5.041,0,0,1,.518-.457,1.667,1.667,0,0,1,2.408.091c.838.823,1.676,1.661,2.5,2.5a1.608,1.608,0,0,1,.061,2.438,1.244,1.244,0,0,0-.229,1.8,7.119,7.119,0,0,1,.7,1.8.541.541,0,0,0,.549.442c2.118.244,2.347.5,2.347,2.636v2.682a1.626,1.626,0,0,1-1.707,1.8c-.762,0-1.2.2-1.387,1.021a8.349,8.349,0,0,1-.777,1.828c-.152.289-.183.5.091.747a3.814,3.814,0,0,1,.518.594,1.64,1.64,0,0,1-.122,2.27c-.838.869-1.707,1.737-2.59,2.575a6.879,6.879,0,0,1-1.128.686,21.613,21.613,0,0,1-20.281,20.921c.381,1.1-.274,1.752-.96,2.408-.731.7-1.417,1.432-2.148,2.133a1.649,1.649,0,0,1-2.56.107,1.392,1.392,0,0,0-2.042-.244,7.983,7.983,0,0,1-1.95.762.562.562,0,0,0-.488.625,4.792,4.792,0,0,1-.137,1.234A1.825,1.825,0,0,1,415.7,393.4h-4.785a2.011,2.011,0,0,1-1.371-2.133,3.437,3.437,0,0,1,0-.4c.03-.32-.122-.457-.427-.564a10.59,10.59,0,0,1-2.1-.823,1.3,1.3,0,0,0-1.889.244,1.7,1.7,0,0,1-2.651-.091c-.655-.655-1.28-1.356-1.981-1.966-1.722-1.524-1.448-2.529-.168-3.748.259-.244.213-.442.076-.747a21.387,21.387,0,0,1-1.021-2.453c-.168-.5-.366-.716-.9-.67a2.18,2.18,0,0,1-2.27-1.25v-5.013Zm31.922,1.051c-.4-.046-.731-.076-1.067-.107a1.982,1.982,0,0,1-1.722-1.371c-.472-1.173-.96-2.347-1.448-3.52a1.945,1.945,0,0,1,.244-2.133c.229-.274.457-.549.625-.731-.716-.716-1.4-1.417-2.088-2.118-.2.168-.442.381-.686.594a2.007,2.007,0,0,1-2.24.259c-1.143-.5-2.3-.975-3.459-1.432a1.978,1.978,0,0,1-1.387-1.707c-.03-.35-.076-.7-.107-1.067h-2.926c-.031.381-.061.716-.107,1.051a1.981,1.981,0,0,1-1.371,1.722c-1.173.472-2.347.945-3.52,1.448a1.945,1.945,0,0,1-2.133-.244c-.274-.213-.548-.457-.792-.67l-2.087,2.088c.213.259.457.518.67.808a1.948,1.948,0,0,1,.244,2.133c-.5,1.189-1.006,2.377-1.478,3.566a1.9,1.9,0,0,1-1.63,1.31c-.366.046-.747.076-1.112.122v2.926c.4.046.762.061,1.112.107a1.919,1.919,0,0,1,1.63,1.326c.472,1.188.975,2.377,1.478,3.566a1.945,1.945,0,0,1-.244,2.133c-.213.274-.457.549-.67.792.7.7,1.387,1.4,2.072,2.1.259-.213.518-.457.808-.67a1.9,1.9,0,0,1,2.087-.259c1.219.5,2.438,1.021,3.672,1.524a1.894,1.894,0,0,1,1.265,1.615c.046.366.076.747.122,1.112H414.8c.031-.381.061-.716.107-1.051a1.982,1.982,0,0,1,1.371-1.722c1.158-.457,2.316-.929,3.459-1.432a2.014,2.014,0,0,1,2.24.259c.259.213.518.442.686.579.716-.716,1.4-1.4,2.1-2.088-.183-.213-.411-.472-.625-.731a1.948,1.948,0,0,1-.244-2.133c.5-1.189,1.006-2.377,1.478-3.566a1.937,1.937,0,0,1,1.63-1.326c.366-.046.747-.076,1.128-.122v-2.91Zm11.794-37.53h-2.575c-.031.244-.046.457-.061.686a1.96,1.96,0,0,1-1.478,1.935c-1.021.381-2.042.808-3.032,1.265a1.957,1.957,0,0,1-2.225-.244c-.213-.183-.427-.366-.579-.488l-1.844,1.844c.152.183.35.381.518.609a1.92,1.92,0,0,1,.244,2.133c-.457,1.082-.914,2.164-1.341,3.246a1.932,1.932,0,0,1-1.752,1.326c-.274.015-.549.061-.823.091v2.56c.274.03.533.061.792.076a1.962,1.962,0,0,1,1.8,1.356c.427,1.067.853,2.148,1.326,3.2a1.943,1.943,0,0,1-.213,2.133,8.425,8.425,0,0,1-.549.64l1.844,1.844c.107-.091.244-.213.4-.35a2.059,2.059,0,0,1,2.606-.32c.945.442,1.9.823,2.9,1.189a1.963,1.963,0,0,1,1.448,1.828c.015.259.046.518.076.762h2.56a3.091,3.091,0,0,0,.061-.472c.122-1.4.488-1.813,1.844-2.24a15.2,15.2,0,0,0,2.362-.99,2.079,2.079,0,0,1,2.834.3,3.507,3.507,0,0,0,.3.259c.609-.61,1.219-1.2,1.844-1.829-.152-.183-.335-.381-.518-.609a1.967,1.967,0,0,1-.259-2.179c.457-1.051.9-2.118,1.31-3.2a1.952,1.952,0,0,1,1.8-1.341c.259-.015.518-.046.792-.076v-2.575c-.29-.031-.549-.046-.808-.076a1.973,1.973,0,0,1-1.783-1.371c-.411-1.082-.868-2.133-1.326-3.2a1.928,1.928,0,0,1,.213-2.088c.2-.244.411-.488.533-.64l-1.844-1.844c-.152.137-.35.3-.549.472a1.978,1.978,0,0,1-2.24.244c-1.036-.457-2.088-.884-3.154-1.3a1.947,1.947,0,0,1-1.356-1.783c-.015-.259-.046-.518-.076-.808Zm-17.249,12.083c-4.023.213-10.468,6.2-10.575,9.8h2.331c2.164,0,2.529.335,2.651,2.514.015.35.168.472.472.579a10.5,10.5,0,0,1,2.057.808,1.29,1.29,0,0,0,1.889-.244,1.686,1.686,0,0,1,2.651.091c.67.655,1.3,1.356,1.981,1.966,1.661,1.478,1.493,2.484.152,3.764-.274.259-.2.457-.061.747a10.928,10.928,0,0,1,.9,2.087c.2.838.609,1.082,1.448,1.067,1.234,0,1.844.716,1.844,1.966v3.017c3.947-.5,9.9-6.979,9.767-10.605h-2.453c-2.179,0-2.438-.213-2.682-2.362a.567.567,0,0,0-.457-.549,9.746,9.746,0,0,1-1.9-.762,1.127,1.127,0,0,0-1.6.213,1.666,1.666,0,0,1-2.606-.076c-.777-.777-1.569-1.554-2.347-2.347a1.7,1.7,0,0,1-.091-2.575,1.6,1.6,0,0,1,.3-.335.613.613,0,0,0,.137-.884,8.493,8.493,0,0,1-.808-1.874,1.026,1.026,0,0,0-1.173-.9c-1.3-.015-1.859-.67-1.859-1.981v-3.139Zm3.809,33.461c10.986-.122,19.336-9.92,18.666-19.778-.609.259-1.234.5-1.813.792a.837.837,0,0,0-.381.5c-.152.96-.183,1.935-.4,2.88a16.912,16.912,0,0,1-14.841,13.287c-.152.015-.366.091-.411.213-.29.7-.549,1.4-.823,2.118Z" fill="#022e61"/>
      <path id="路径_338" data-name="路径 338" d="M489.416,422.049a1.165,1.165,0,0,1,2.33,0,1.186,1.186,0,0,1-1.212,1.181,1.163,1.163,0,0,1-1.134-1.2Z" transform="translate(-79.018 -72.829)" fill="#022e61"/>
      <path id="路径_339" data-name="路径 339" d="M460.6,565.709a7.533,7.533,0,1,0,.016,0Zm7.557,5.2a5.172,5.172,0,1,0-5.2-5.148,5.211,5.211,0,0,0,5.2,5.148Z" transform="translate(-54.696 -189.565)" fill="#022e61"/>
      <path id="路径_340" data-name="路径 340" d="M629.8,401.969a7.077,7.077,0,1,0,0-.016Zm7.069-4.707a3.334,3.334,0,1,1-.016.016Z" transform="translate(-198.368 -50.866)" fill="#022e61"/>
    </g>
  </g>
</svg>
