<svg xmlns="http://www.w3.org/2000/svg" xmlns:xlink="http://www.w3.org/1999/xlink" width="60" height="60" viewBox="0 0 60 60">
  <defs>
    <clipPath id="clip-area03-icon-02">
      <rect width="60" height="60"/>
    </clipPath>
  </defs>
  <g id="area03-icon-02" clip-path="url(#clip-area03-icon-02)">
    <g id="back-end-developer-2" transform="translate(-357.6 -308.832)">
      <path id="路径_318" data-name="路径 318" d="M418.569,329.725c-.763,1.384-1.5,2.784-2.306,4.152a2.772,2.772,0,0,1-3.738,1c-.318-.159-.62-.366-.938-.525-.557-.286-.938-.064-.986.541-.016.3,0,.589,0,.891a2.831,2.831,0,0,1-2.847,2.959c-.159,0-.3.016-.541.032v14.586a3.4,3.4,0,0,1-3.69,3.706h-14.4c.143,1.3.286,2.545.43,3.786.048.445.1.907.175,1.352A2.158,2.158,0,0,0,391.8,364c.477.016.954,0,1.432,0a1.2,1.2,0,0,1,1.273,1.209,1.168,1.168,0,0,1-1.288,1.177H372.79a1.16,1.16,0,0,1-1.288-1.177,1.175,1.175,0,0,1,1.273-1.193c.477-.016.954,0,1.432,0a2.07,2.07,0,0,0,2-1.575c.3-1.75.461-3.515.7-5.36H361.195a3.409,3.409,0,0,1-3.531-2.672,3.629,3.629,0,0,1-.064-.827V322.52a3.41,3.41,0,0,1,3.722-3.738h12.025a1.17,1.17,0,0,1,1.034,1.066,1.154,1.154,0,0,1-.779,1.209,2.765,2.765,0,0,1-.811.1H361.242c-.891,0-1.257.35-1.257,1.257V348.24a3.1,3.1,0,0,0,.016.35h44.776v-9.782c-.382-.032-.732-.048-1.082-.1a2.849,2.849,0,0,1-2.5-2.815v-1.066a.557.557,0,0,0-.859-.525c-.35.175-.684.4-1.034.573a2.8,2.8,0,0,1-3.738-1.034c-.668-1.1-1.32-2.211-1.941-3.34a2.792,2.792,0,0,1,1.034-3.786c.3-.191.62-.35.923-.541a.592.592,0,0,0,0-1.082,2.973,2.973,0,0,0-.3-.175,3.027,3.027,0,0,1-1.845-3.77h-9.369a1.2,1.2,0,0,1-1.3-1.241,1.172,1.172,0,0,1,1.32-1.145c3.293,0,6.585-.016,9.878,0,.636,0,1.05-.143,1.272-.748a2.635,2.635,0,0,1,.286-.509,2.843,2.843,0,0,1,3.929-1.034c.318.175.6.366.938.525a.546.546,0,0,0,.843-.493c.032-.382,0-.748,0-1.129a2.831,2.831,0,0,1,2.863-2.815c1.225,0,2.466-.016,3.69,0a2.78,2.78,0,0,1,2.847,2.863c0,.334-.016.684,0,1.018a.589.589,0,0,0,.923.525c.366-.191.716-.43,1.1-.6a2.736,2.736,0,0,1,3.563.954c.843,1.4,1.591,2.863,2.37,4.311v1.066a3.846,3.846,0,0,1-2.084,2.29c-.8.4-.8.907,0,1.3a3.722,3.722,0,0,1,2.1,2.354v1.066Zm-20.63-11.341a2.883,2.883,0,0,0-.445.43c-.4.652-.779,1.336-1.161,2a1.5,1.5,0,0,0,.541,2.275,2.983,2.983,0,0,1,0,5.074,8.562,8.562,0,0,1-.827.477c-.43.223-.493.509-.239.923.4.668.779,1.336,1.161,2,.923,1.591.652,1.479,2.211.636a2.948,2.948,0,0,1,4.39,2.561v.954a.574.574,0,0,0,.652.652h3.34c.429,0,.668-.175.652-.636v-.891a2.981,2.981,0,0,1,4.47-2.593,8.58,8.58,0,0,1,.827.477.5.5,0,0,0,.8-.191c.589-1.018,1.161-2.02,1.75-3.038a.5.5,0,0,0-.239-.779c-.286-.175-.589-.334-.875-.509a2.986,2.986,0,0,1,.032-5.106c.286-.175.589-.334.875-.509a.484.484,0,0,0,.207-.748c-.589-1.018-1.177-2.02-1.75-3.038a.509.509,0,0,0-.8-.223c-.3.175-.6.366-.923.525a2.994,2.994,0,0,1-4.374-2.513c-.016-.334-.016-.668,0-1.018.016-.445-.175-.652-.636-.636h-2.5c-1.591,0-1.527-.191-1.511,1.5v.111a2.973,2.973,0,0,1-4.581,2.418C398.67,318.782,398.336,318.607,397.938,318.384Zm6.887,32.687h-44.84c0,.938-.048,1.829.032,2.7a1.238,1.238,0,0,0,.525.779,1.745,1.745,0,0,0,.923.143h41.9a4.372,4.372,0,0,0,.652-.032.9.9,0,0,0,.811-.891C404.858,352.885,404.826,351.994,404.826,351.072Zm-17.052,12.948a15.91,15.91,0,0,1-.414-1.607c-.223-1.591-.414-3.181-.573-4.788-.048-.445-.207-.557-.62-.541-2.116.016-4.247,0-6.363,0-.175,0-.334.032-.477.032-.318,2.338-.636,4.613-.938,6.887h9.369Z" transform="translate(0 0)" fill="#022e61"/>
      <path id="路径_319" data-name="路径 319" d="M409.5,465.631h-9.975a1.181,1.181,0,0,1-.347-2.336,2.374,2.374,0,0,1,.474-.016H419.3c.821,0,1.31.331,1.42.947a1.176,1.176,0,0,1-1.31,1.4Z" transform="translate(-34.178 -126.737)" fill="#022e61"/>
      <path id="路径_320" data-name="路径 320" d="M406.612,501.179c2.336,0,4.687-.016,7.023.016a1.72,1.72,0,0,1,1.121.473,1.1,1.1,0,0,1-.537,1.768,2.436,2.436,0,0,1-.758.095H399.368a1.207,1.207,0,0,1-1.168-1.168,1.167,1.167,0,0,1,1.215-1.168h7.2Z" transform="translate(-34.192 -158.606)" fill="#022e61"/>
      <path id="路径_321" data-name="路径 321" d="M536.2,501.116h4.845c.868,0,1.4.458,1.4,1.168s-.552,1.184-1.4,1.184h-9.675A1.224,1.224,0,0,1,530,502.252c.016-.694.552-1.136,1.373-1.152h4.845Z" transform="translate(-144.921 -158.543)" fill="#022e61"/>
      <path id="路径_322" data-name="路径 322" d="M401.035,389.36c.868.915,1.72,1.784,2.525,2.667a1.138,1.138,0,0,1-.537,1.973,1.45,1.45,0,0,1-1.1-.331c-1.152-1.121-2.257-2.3-3.346-3.5a1.113,1.113,0,0,1,0-1.641c1.089-1.168,2.178-2.32,3.3-3.472a1.147,1.147,0,0,1,1.689-.095,1.171,1.171,0,0,1,0,1.736c-.8.884-1.641,1.736-2.509,2.651Z" transform="translate(-34.203 -60.591)" fill="#022e61"/>
      <path id="路径_323" data-name="路径 323" d="M506.518,389.449c-.773-.8-1.484-1.562-2.194-2.32-.142-.158-.3-.3-.442-.474a1.139,1.139,0,0,1,.126-1.594,1.081,1.081,0,0,1,1.547,0c1.184,1.2,2.352,2.431,3.5,3.677a1.118,1.118,0,0,1-.032,1.515c-1.1,1.2-2.241,2.383-3.378,3.551a1.141,1.141,0,0,1-1.641.063,1.166,1.166,0,0,1-.047-1.689c.395-.458.837-.884,1.263-1.326.41-.442.836-.884,1.294-1.373Z" transform="translate(-122.772 -60.68)" fill="#022e61"/>
      <path id="路径_324" data-name="路径 324" d="M449.627,394.164c-1.073-.016-1.626-.884-1.278-1.641a10.839,10.839,0,0,1,.694-1.168q1.823-2.959,3.646-5.934a1.176,1.176,0,0,1,1.278-.647,1.072,1.072,0,0,1,.931.931,1.432,1.432,0,0,1-.189.884c-1.4,2.32-2.825,4.64-4.277,6.929a2.49,2.49,0,0,1-.821.631Z" transform="translate(-76.213 -60.691)" fill="#022e61"/>
      <path id="路径_325" data-name="路径 325" d="M560.984,465.55A1.2,1.2,0,0,1,559.8,464.4a1.209,1.209,0,0,1,1.2-1.2,1.176,1.176,0,0,1-.016,2.352Z" transform="translate(-170.027 -126.672)" fill="#022e61"/>
      <path id="路径_326" data-name="路径 326" d="M483.082,351.7a1.176,1.176,0,1,1-.047,2.352,1.176,1.176,0,0,1-1.136-1.2A1.2,1.2,0,0,1,483.082,351.7Z" transform="translate(-104.52 -32.966)" fill="#022e61"/>
      <path id="路径_327" data-name="路径 327" d="M639.933,368.64a4.916,4.916,0,0,1-9.833-.032,4.916,4.916,0,1,1,9.833.032Zm-4.924,2.525a2.543,2.543,0,0,0,2.573-2.525,2.549,2.549,0,1,0-2.557,2.525Z" transform="translate(-229.018 -42.995)" fill="#022e61"/>
    </g>
  </g>
</svg>
