<svg xmlns="http://www.w3.org/2000/svg" xmlns:xlink="http://www.w3.org/1999/xlink" width="60" height="60" viewBox="0 0 60 60">
  <defs>
    <clipPath id="clip-area03-icon-03">
      <rect width="60" height="60"/>
    </clipPath>
  </defs>
  <g id="area03-icon-03" clip-path="url(#clip-area03-icon-03)">
    <g id="mobile-developer" transform="translate(-355.672 -265.916)">
      <path id="路径_328" data-name="路径 328" d="M356.4,324.079a1.645,1.645,0,0,1,1.638-.826c2.755.029,5.51,0,8.337,0-.783-1.754-.479-3.567-.479-5.336-.029-15.616,0-31.231-.014-46.847a4.435,4.435,0,0,1,2.523-4.321,9.888,9.888,0,0,1,1.3-.449h32.652a12.862,12.862,0,0,1,1.986.87,4.3,4.3,0,0,1,1.841,3.784v48.717a6.893,6.893,0,0,1-.536,3.581h8.467a3.151,3.151,0,0,1,.638.043,1.128,1.128,0,0,1-.014,2.218,3.077,3.077,0,0,1-.638.044H357.98a1.631,1.631,0,0,1-1.58-.826v-.652Zm11.817-28.157v24.764c0,1.812.754,2.581,2.552,2.581h30.564c1.783,0,2.552-.754,2.552-2.523v-49.6c0-1.754-.768-2.523-2.552-2.523H370.769c-1.8,0-2.552.754-2.552,2.581v24.721Z" transform="translate(0 0)" fill="#022e61"/>
      <path id="路径_329" data-name="路径 329" d="M457.861,319.606v31.106h10.017a1.2,1.2,0,0,1,1.305,1.117,1.183,1.183,0,0,1-1.32,1.16h-9.988v3.165h26.135V319.591h-6.746a2.2,2.2,0,0,1-.748-.1,1.018,1.018,0,0,1-.748-1.045,1.047,1.047,0,0,1,.763-1.045,3.246,3.246,0,0,1,.748-.1h7.553c1.188,0,1.584.387,1.584,1.547v38.08c0,1.16-.381,1.547-1.584,1.547H457.084c-1.2,0-1.584-.372-1.584-1.532v-38.08c0-1.174.381-1.547,1.569-1.561h7.318c.161,0,.308,0,.469.014a1.127,1.127,0,0,1,.015,2.248,4.756,4.756,0,0,1-.645.029h-6.365Z" transform="translate(-84.908 -43.696)" fill="#022e61"/>
      <path id="路径_330" data-name="路径 330" d="M492.921,439.854c1.017,1.017,2.034,1.991,2.993,3.007a1.844,1.844,0,0,1,.516,1.074,1.084,1.084,0,0,1-1.7.859,5.957,5.957,0,0,1-.644-.573l-3.394-3.394a1.218,1.218,0,0,1,0-2.019c1.217-1.232,2.449-2.463,3.681-3.681a1.152,1.152,0,0,1,1.532-.3,1.121,1.121,0,0,1,.129,1.847c-.888.917-1.8,1.8-2.707,2.721-.129.129-.258.272-.43.458Z" transform="translate(-114.329 -143.875)" fill="#022e61"/>
      <path id="路径_331" data-name="路径 331" d="M591.084,439.922c-1.017-1.017-2.034-1.991-2.993-3.008a1.844,1.844,0,0,1-.516-1.074,1.084,1.084,0,0,1,1.7-.859,5.977,5.977,0,0,1,.645.573l3.394,3.394a1.218,1.218,0,0,1,0,2.019c-1.217,1.232-2.449,2.463-3.681,3.681a1.152,1.152,0,0,1-1.532.3,1.122,1.122,0,0,1-.129-1.847c.888-.917,1.8-1.8,2.707-2.721.129-.129.258-.272.415-.458Z" transform="translate(-197.59 -143.999)" fill="#022e61"/>
      <path id="路径_332" data-name="路径 332" d="M547.053,425.9c.788.029,1.232.673,1,1.561-.272,1.131-.6,2.234-.9,3.365l-1.847,6.831a2.137,2.137,0,0,1-.2.53,1.118,1.118,0,0,1-2.105-.53,2.3,2.3,0,0,1,.1-.616q1.332-4.984,2.692-9.968c.229-.845.6-1.189,1.246-1.16Z" transform="translate(-159.513 -136.379)" fill="#022e61"/>
      <path id="路径_333" data-name="路径 333" d="M546.043,614.276a2.972,2.972,0,1,1-2.936-2.979A3,3,0,0,1,546.043,614.276Zm-2.95.688a.665.665,0,0,0,.644-.7.617.617,0,0,0-.63-.659.625.625,0,0,0-.7.644c0,.415.258.645.688.7Z" transform="translate(-157.028 -294.862)" fill="#022e61"/>
      <path id="路径_334" data-name="路径 334" d="M529.356,291.862c1.332,0,2.664-.014,4,0a1.142,1.142,0,0,1,1.174,1.532,1.114,1.114,0,0,1-1.117.745h-8.12a1.133,1.133,0,1,1,0-2.263c1.346-.029,2.707,0,4.053,0h0Z" transform="translate(-143.32 -21.896)" fill="#022e61"/>
      <path id="路径_335" data-name="路径 335" d="M554.046,319.863a1.186,1.186,0,0,1-1.146-1.131,1.131,1.131,0,1,1,1.131,1.131Z" transform="translate(-167.995 -43.953)" fill="#022e61"/>
      <path id="路径_336" data-name="路径 336" d="M571.515,552.961a1.131,1.131,0,1,1,1.146-1.117A1.163,1.163,0,0,1,571.515,552.961Z" transform="translate(-182.955 -243.143)" fill="#022e61"/>
    </g>
  </g>
</svg>
