<svg xmlns="http://www.w3.org/2000/svg" xmlns:xlink="http://www.w3.org/1999/xlink" width="60" height="60" viewBox="0 0 60 60">
  <defs>
    <clipPath id="clip-area03-icon-06">
      <rect width="60" height="60"/>
    </clipPath>
  </defs>
  <g id="area03-icon-06" clip-path="url(#clip-area03-icon-06)">
    <g id="data" transform="translate(-316.336 -254.375)">
      <path id="路径_341" data-name="路径 341" d="M316.643,281.893a25.487,25.487,0,0,1,.714-2.913,11.7,11.7,0,0,1,10.9-7.812h.543c.486-1.414.857-2.814,1.428-4.113a19.039,19.039,0,0,1,11.6-10.711,41.829,41.829,0,0,1,4.813-1.057c.114-.029.214-.057.328-.086h2.742c.843.143,1.685.229,2.514.428a19.4,19.4,0,0,1,14.253,11.754,1.817,1.817,0,0,0,.928.971,13.434,13.434,0,0,1,7.484,10.869,13.845,13.845,0,0,1-10.626,15.053c-.971.229-1.657-.143-1.7-.957-.043-.657.328-1,1.128-1.271a16.747,16.747,0,0,0,3.056-1.185,11.6,11.6,0,0,0-.943-20.723,2.3,2.3,0,0,1-1.243-1.371,17.427,17.427,0,0,0-33.448,3.056c-.029.171-.057.343-.1.5-.2,1-.614,1.314-1.642,1.2a9.642,9.642,0,0,0-3.5.271,9.451,9.451,0,0,0,.514,18.367,3.42,3.42,0,0,1,.657.171,1.1,1.1,0,0,1,.743,1.357,1.16,1.16,0,0,1-1.314.828,11.774,11.774,0,0,1-9.755-10.083,1.852,1.852,0,0,0-.114-.371v-2.171Z" transform="translate(0 0)" fill="#022e61"/>
      <path id="路径_342" data-name="路径 342" d="M316.9,633.01a1.406,1.406,0,0,1,1.528-.914h19.538a2.084,2.084,0,0,1,.728.086,1.116,1.116,0,0,1,0,2.114,2.484,2.484,0,0,1-.728.086H318.428a1.422,1.422,0,0,1-1.528-.914v-.457Z" transform="translate(-0.257 -323.068)" fill="#022e61"/>
      <path id="路径_343" data-name="路径 343" d="M419.785,407.076a5.8,5.8,0,0,1,0-9.112,14.616,14.616,0,0,1-1.085-1.214,5.421,5.421,0,0,1-.6-5.713,5.35,5.35,0,0,1,5.027-3.342c6.156-.057,12.311-.029,18.467-.014a5.7,5.7,0,0,1,3.813,9.84c-.128.128-.271.257-.443.414a5.75,5.75,0,0,1,0,9.112c.157.157.314.286.457.428a5.664,5.664,0,0,1,1.371,6.284,5.723,5.723,0,0,1-5.184,3.556c-2.471.029-4.942,0-7.412,0h-.671c0,1.014-.014,1.985.014,2.942,0,.143.229.3.386.386a3.411,3.411,0,1,1-4.756,4.213,3.35,3.35,0,0,1,1.614-4.17.716.716,0,0,0,.457-.786c-.029-.843,0-1.7,0-2.6h-7.627A5.8,5.8,0,0,1,418,413.759a5.662,5.662,0,0,1,1.642-6.555,1.425,1.425,0,0,0,.143-.157Zm12.554-1.157h9a3.424,3.424,0,0,0,3.585-3.471,3.389,3.389,0,0,0-3.4-3.356c-6.1-.029-12.2,0-18.281,0a1.389,1.389,0,0,0-.343.029,3.42,3.42,0,0,0,.571,6.813h8.883Zm.086-15.953h-6.213c-1,0-2.014-.029-3.014,0a3.414,3.414,0,0,0,.114,6.827c6.056.014,12.111,0,18.167,0a3.7,3.7,0,0,0,.786-.1,3.416,3.416,0,0,0-.9-6.741h-8.941Zm-.043,18.238h-6.613c-.871,0-1.742-.029-2.614,0a3.409,3.409,0,1,0,.271,6.813h17.938a4.69,4.69,0,0,0,.9-.1,3.383,3.383,0,0,0,2.528-4.185,3.427,3.427,0,0,0-3.428-2.556h-9Zm1.114,15.525a1.128,1.128,0,1,0-1.143,1.114A1.18,1.18,0,0,0,433.5,423.728Z" transform="translate(-86.532 -113.543)" fill="#022e61"/>
      <path id="路径_344" data-name="路径 344" d="M578.183,634.535h-9.7c-.186,0-.385,0-.571-.014a1.136,1.136,0,0,1-1.014-1.114,1.148,1.148,0,0,1,1.014-1.114,3.818,3.818,0,0,1,.571-.014h19.609c.928,0,1.471.428,1.471,1.142s-.543,1.143-1.471,1.143h-9.912Z" transform="translate(-214.552 -323.221)" fill="#022e61"/>
      <path id="路径_345" data-name="路径 345" d="M460.261,482.479h4.156a1.182,1.182,0,0,1,1.271.743,1.077,1.077,0,0,1-.771,1.457,3.151,3.151,0,0,1-.728.071h-7.926a3.1,3.1,0,0,1-.514-.029,1.1,1.1,0,0,1-1.057-1.171,1.06,1.06,0,0,1,1.114-1.057c1.285-.029,2.585-.014,3.87-.014h.586Z" transform="translate(-118.368 -194.816)" fill="#022e61"/>
      <path id="路径_346" data-name="路径 346" d="M547.457,483.714a1.159,1.159,0,0,1-1.128,1.128,1.11,1.11,0,0,1-1.128-1.114,1.128,1.128,0,0,1,2.257-.029Z" transform="translate(-195.951 -194.923)" fill="#022e61"/>
      <path id="路径_347" data-name="路径 347" d="M575.357,483.614a1.137,1.137,0,0,1-1.114,1.128,1.121,1.121,0,0,1-.043-2.242,1.15,1.15,0,0,1,1.157,1.1Z" transform="translate(-219.867 -194.837)" fill="#022e61"/>
      <path id="路径_348" data-name="路径 348" d="M460.275,418.562c1.428,0,2.856-.014,4.27,0,.928.014,1.5.757,1.128,1.514a1.929,1.929,0,0,1-.814.686,1.457,1.457,0,0,1-.671.071h-7.927a2.565,2.565,0,0,1-.571-.043,1.084,1.084,0,0,1-1-1.171,1.043,1.043,0,0,1,1.057-1.043c1.5-.029,3,0,4.5,0h0Z" transform="translate(-118.367 -140.025)" fill="#022e61"/>
      <path id="路径_349" data-name="路径 349" d="M546.3,418.8a1.114,1.114,0,1,1-1.1,1.143,1.107,1.107,0,0,1,1.085-1.143Z" transform="translate(-195.95 -140.235)" fill="#022e61"/>
      <path id="路径_350" data-name="路径 350" d="M574.2,418.7a1.121,1.121,0,1,1,.043,2.242,1.137,1.137,0,0,1-1.143-1.1A1.119,1.119,0,0,1,574.2,418.7Z" transform="translate(-219.867 -140.149)" fill="#022e61"/>
      <path id="路径_351" data-name="路径 351" d="M460.284,546.324c1.4,0,2.814-.014,4.213,0,.957.014,1.528.7,1.2,1.457a2,2,0,0,1-.828.743,1.457,1.457,0,0,1-.671.071h-8.326a1.136,1.136,0,1,1,.014-2.271c.771-.029,1.557,0,2.342,0Z" transform="translate(-118.377 -249.535)" fill="#022e61"/>
      <path id="路径_352" data-name="路径 352" d="M546.328,548.728a1.114,1.114,0,1,1,0-2.228,1.114,1.114,0,1,1,.014,2.228Z" transform="translate(-195.951 -249.697)" fill="#022e61"/>
      <path id="路径_353" data-name="路径 353" d="M574.2,548.641a1.121,1.121,0,0,1,.043-2.242,1.128,1.128,0,0,1,1.114,1.128,1.141,1.141,0,0,1-1.157,1.1Z" transform="translate(-219.865 -249.609)" fill="#022e61"/>
    </g>
  </g>
</svg>
